<?xml version="1.0" standalone="no"?><!DOCTYPE svg PUBLIC "-//W3C//DTD SVG 1.1//EN" "http://www.w3.org/Graphics/SVG/1.1/DTD/svg11.dtd"><svg t="1695541574399" class="icon" viewBox="0 0 1024 1024" version="1.1" xmlns="http://www.w3.org/2000/svg" p-id="4019" xmlns:xlink="http://www.w3.org/1999/xlink" width="200" height="200"><path d="M187.32 368.87h185.22a20.35 20.35 0 1 0 0-40.69H187.32a20.35 20.35 0 1 0 0 40.69zM431.39 453.35H187.32a20.35 20.35 0 1 0 0 40.69h244.07a20.35 20.35 0 0 0 0-40.69zM849.18 328.18H664a20.35 20.35 0 1 0 0 40.69h185.18a20.35 20.35 0 0 0 0-40.69zM849.18 453.35H605.12a20.35 20.35 0 1 0 0 40.69h244.06a20.35 20.35 0 0 0 0-40.69zM431.39 578.52H187.32a20.35 20.35 0 1 0 0 40.69h244.07a20.35 20.35 0 0 0 0-40.69zM849.18 578.52H605.12a20.35 20.35 0 1 0 0 40.69h244.06a20.35 20.35 0 0 0 0-40.69z" fill="#e6e6e6" p-id="4020"></path><path d="M849.46 107.25c-89.69-4.09-251.55-1.7-328.9 60.19a79.2 79.2 0 0 0-8.77 8.8 76.34 76.34 0 0 0-9.32-8.83C424 109.3 264.63 105.3 176.6 108a79.17 79.17 0 0 0-76.94 79.6v617.73a79.38 79.38 0 0 0 88.1 79.09c69.78-7.75 169.38-13.21 247.82 4.91a82.33 82.33 0 0 0 18.63 2.14 72.32 72.32 0 0 0 57.51-24.88 77.71 77.71 0 0 0 8 8.27 79.52 79.52 0 0 0 51 18.44 81 81 0 0 0 14.75-1.36c77.44-14.35 192.65-8.75 254.43-4.13a79.51 79.51 0 0 0 85.51-79.35V186.77a79.44 79.44 0 0 0-75.95-79.52zM479 842.12a40.2 40.2 0 0 1-34.25 7.57c-84-19.41-188.55-13.83-261.48-5.7a38.71 38.71 0 0 1-42.9-38.66V187.6a38.64 38.64 0 0 1 37.52-38.88c140.74-4.36 250.28 14.29 300.37 51.39a37.67 37.67 0 0 1 13.62 20.47 77.29 77.29 0 0 0-1 8.88l0.12 170.62c0.12 140.52 0.29 311 0.16 413.75a78.81 78.81 0 0 0 0.89 8.14A37.42 37.42 0 0 1 479 842.12z m405.66-33.66a38.81 38.81 0 0 1-41.79 38.77c-77.85-5.82-187-9.73-264.88 4.69a39 39 0 0 1-32.25-8.33 38.31 38.31 0 0 1-12.8-20.85 78.33 78.33 0 0 0 1.19-10.65V231.14a79.32 79.32 0 0 0-1.3-11.22 38.13 38.13 0 0 1 13.17-20.7c42.53-34 131.15-52.59 247.4-52.59q26.22 0 54.25 1.27a38.79 38.79 0 0 1 37 38.87z" fill="#e6e6e6" p-id="4021"></path></svg>