<?xml version="1.0" standalone="no"?><!DOCTYPE svg PUBLIC "-//W3C//DTD SVG 1.1//EN" "http://www.w3.org/Graphics/SVG/1.1/DTD/svg11.dtd"><svg t="1695542328108" class="icon" viewBox="0 0 1024 1024" version="1.1" xmlns="http://www.w3.org/2000/svg" p-id="7213" xmlns:xlink="http://www.w3.org/1999/xlink" width="200" height="200"><path d="M947.695426 623.441302l-694.703304 0q-11.042971 0-23.08985 6.023439t-22.587896 18.070317-17.066411 28.611336-6.525392 37.646494 5.521486 39.152354 14.556645 32.125008 22.085944 22.085944 28.109382 8.031253l693.699399 0q-12.046878-12.046878-21.082037-27.105475-8.031253-13.050784-14.556645-31.121102t-6.525392-41.160167q0-26.101569 6.525392-43.167979t14.556645-28.109382q9.035158-12.046878 21.082037-21.082037zM947.695426 897.507779q0 17.066411-22.085944 17.066411l-733.855659 0q-34.132821 0-57.222671-14.054691t-37.646494-38.6504-20.580083-58.728531-6.023439-73.285176l0-582.265776q0-77.300801 41.160167-111.935576t117.457062-34.634774l34.132821 0 68.265643 0 93.363306 0q51.199232 0 104.90823-0.501953t104.90823-0.501953l94.367211 0 70.273456 0 35.136728 0q28.109382 0 49.191419 11.544925t35.136728 32.125008 21.58399 48.689466 7.529299 60.23439l0 406.582136q-191.746144 0-345.34384-1.003907l-128.500033 0q-64.250016 0-114.947296-0.501953t-83.826194-0.501953l-37.144541 0q-21.082037 0-41.160167 12.548832t-36.140634 34.132821-26.101569 50.195325-10.039065 59.732437q0 38.148448 10.541018 68.767595t27.607429 51.701185 37.646494 32.626962 40.658214 11.544925l685.668146 0q8.031253 0 14.556645 4.517579t6.525392 14.556645zM515.01172 0.01536l0 388.511819 77.300801-108.421903 76.296895 108.421903 0-388.511819-153.597696 0z" fill="#272636" p-id="7214"></path></svg>